<svg version="1.1" xmlns="http://www.w3.org/2000/svg" xmlns:xlink="http://www.w3.org/1999/xlink" x="0px" y="0px"
	 viewBox="0 0 24 24" style="enable-background:new 0 0 24 24;" xml:space="preserve">
<style type="text/css">
	.st0{fill:none;}
	.st1{fill:#121331;}
</style>
<g id="bounding_box">
	<rect class="st0" width="24" height="24"/>
</g>
<g id="design">
	<g>
		<path class="st1" d="M12,21c-0.14,0-0.28-0.04-0.41-0.12l-1.15-0.74c-3.9-2.5-6.49-6.58-7.1-11.19l-0.34-2.6
			C2.96,5.96,3.22,5.59,3.6,5.51c1.7-0.34,6.46-1.44,8-2.4c0.24-0.15,0.55-0.15,0.79,0c1.54,0.97,6.3,2.06,8,2.4
			c0.39,0.08,0.65,0.44,0.6,0.83l-0.34,2.6c-0.61,4.61-3.2,8.69-7.1,11.19l-1.15,0.74C12.28,20.96,12.14,21,12,21z M4.58,6.84
			l0.25,1.91c0.55,4.17,2.89,7.86,6.42,10.13L12,19.36l0.74-0.48c3.53-2.26,5.87-5.95,6.42-10.13l0.25-1.91
			C17.83,6.5,13.91,5.59,12,4.61C10.09,5.59,6.17,6.5,4.58,6.84z"/>
		<path class="st1" d="M11.26,15c-0.19,0-0.38-0.07-0.53-0.22l-2.51-2.5c-0.29-0.29-0.29-0.77,0-1.06c0.29-0.29,0.77-0.29,1.06,0
			l1.98,1.97l4.73-4.72c0.29-0.29,0.77-0.29,1.06,0c0.29,0.29,0.29,0.77,0,1.06l-5.26,5.25C11.64,14.93,11.45,15,11.26,15z"/>
	</g>
</g>
</svg>
